<svg width="1359" height="200" viewBox="0 0 1359 200" fill="none" xmlns="http://www.w3.org/2000/svg">
<path d="M99.9265 200V40H39.9706C28.7289 40 19.2567 36.1457 11.554 28.4373C3.85133 20.5207 0 11.0417 0 0H239.824C239.824 11.25 235.868 20.7293 227.957 28.4373C220.046 36.1457 210.678 40 199.853 40H139.897V200H99.9265ZM319.765 200C308.523 200 299.051 196.146 291.348 188.437C283.645 180.521 279.794 171.042 279.794 160H519.618C519.618 171.25 515.661 180.729 507.753 188.437C499.839 196.146 490.472 200 479.647 200H319.765ZM319.765 120C308.523 120 299.051 116.146 291.348 108.437C283.645 100.521 279.794 91.0417 279.794 80H519.618C519.618 91.25 515.661 100.729 507.753 108.437C499.839 116.146 490.472 120 479.647 120H319.765ZM319.765 40C308.523 40 299.051 36.1457 291.348 28.4373C283.645 20.5207 279.794 11.0417 279.794 0H519.618C519.618 11.25 515.661 20.7293 507.753 28.4373C499.839 36.1457 490.472 40 479.647 40H319.765ZM559.588 200C559.588 188.958 563.439 179.583 571.143 171.875C579.054 163.958 588.527 160 599.559 160H759.441V120H559.588V0H799.412C799.412 11.25 795.455 20.7293 787.547 28.4373C779.633 36.1457 770.267 40 759.441 40H599.559V80H799.412V200H559.588ZM839.382 200V0H879.353V160H1079.21C1079.21 171.25 1075.25 180.729 1067.34 188.437C1059.43 196.146 1050.06 200 1039.24 200H839.382ZM1119.18 200V80H1359V200H1319.03V120H1159.15V200H1119.18ZM1159.15 40C1147.91 40 1138.43 36.1457 1130.73 28.4373C1123.03 20.5207 1119.18 11.0417 1119.18 0H1359C1359 11.25 1355.04 20.7293 1347.14 28.4373C1339.22 36.1457 1329.85 40 1319.03 40H1159.15Z" fill="#F4F4F4"/>
</svg>
